<?xml version="1.0" encoding="utf-8"?>
<!-- Generator: Adobe Illustrator 19.1.0, SVG Export Plug-In . SVG Version: 6.00 Build 0)  -->
<svg version="1.1" id="Layer_1" xmlns="http://www.w3.org/2000/svg" xmlns:xlink="http://www.w3.org/1999/xlink" x="0px" y="0px"
	 viewBox="0 0 206.7 100" xml:space="preserve">
<style type="text/css">
	.st0{fill:#1F6B32;}
	.st1{fill:#0B55B1;}
	.st2{fill:#EFA500;}
	.st3{fill:#5D5D5D;}
	.st4{fill:#FFFFFF;}
</style>
<g>
	<path class="st2" d="M20.6,26.4c5,0,8.3,3,8.3,7.4c0,2.7-1.3,4.8-3.4,5.4c2.4,0.6,4,2.9,4,6c0,4.5-3.3,7.4-8.3,7.4H9.2
		c-0.3,0-0.5-0.3-0.5-0.5V27c0-0.3,0.2-0.6,0.5-0.6H20.6z M18.9,36.7c1.1,0,1.9-0.7,1.9-1.7c0-1.1-0.8-1.8-1.9-1.8h-2.4v3.5H18.9z
		 M19.5,45.9c1.1,0,1.9-0.7,1.9-1.8s-0.8-1.8-1.9-1.8h-3.1v3.7H19.5z"/>
	<path class="st2" d="M57.6,52.2c0.1,0.2,0,0.5-0.3,0.5h-7.5c-0.3,0-0.6-0.2-0.8-0.5l-1.1-4h-7.2l-1.1,4c-0.2,0.3-0.5,0.5-0.8,0.5
		h-7.5c-0.3,0-0.5-0.3-0.3-0.5l8.6-25.3c0.1-0.2,0.5-0.5,0.9-0.5h7.8c0.4,0,0.8,0.3,0.9,0.5L57.6,52.2z M44.2,35.5l-2.1,7.2h4.1
		L44.2,35.5z"/>
	<path class="st2" d="M77.3,26.4c0.3,0,0.6,0.3,0.5,0.5l-0.6,5.8c0,0.3-0.3,0.5-0.6,0.5H71v18.9c0,0.3-0.2,0.5-0.5,0.5h-6.7
		c-0.3,0-0.6-0.3-0.6-0.5V33.3h-6.3c-0.3,0-0.5-0.2-0.5-0.5V27c0-0.3,0.3-0.6,0.5-0.6H77.3z"/>
	<path class="st2" d="M99.2,45.8c0.3,0,0.6,0.2,0.6,0.5v5.8c0,0.3-0.3,0.5-0.6,0.5H81.5c-0.3,0-0.5-0.3-0.6-0.6V27
		c0-0.3,0.2-0.5,0.5-0.5h17.3c0.3,0,0.6,0.3,0.6,0.5v5.7c0,0.3-0.3,0.6-0.6,0.6h-9.9v3h8.1c0.3,0,0.5,0.3,0.5,0.5l-0.5,5.3
		c0,0.2-0.3,0.5-0.6,0.5h-7.4v3.2H99.2z"/>
	<path class="st0" d="M18.1,57.7c6.7,0,10.7,3.6,10.7,9.1c0,5.4-4,9.1-10.7,9.1h-1.6v7.6c0,0.3-0.3,0.5-0.6,0.5H9.2
		c-0.3,0-0.5-0.3-0.5-0.5V58.3c0-0.3,0.3-0.6,0.5-0.6H18.1z M18.5,69c1.3,0,2.2-0.9,2.2-2.2c0-1.3-0.9-2.2-2.2-2.2h-2V69H18.5z"/>
	<path class="st0" d="M53.1,83.5c0.1,0.2,0,0.5-0.3,0.5h-7.5c-0.3,0-0.6-0.2-0.8-0.5l-1.1-4h-7.2l-1.1,4c-0.2,0.3-0.5,0.5-0.8,0.5
		h-7.5c-0.3,0-0.5-0.3-0.3-0.5l8.6-25.3c0.1-0.2,0.5-0.5,0.9-0.5h7.8c0.4,0,0.8,0.3,0.9,0.5L53.1,83.5z M39.7,66.8L37.7,74h4.1
		L39.7,66.8z"/>
	<path class="st0" d="M76.7,57.7c0.3,0,0.6,0.3,0.6,0.6v25.1c0,0.3-0.2,0.5-0.6,0.5h-6.6c-0.3,0-0.6-0.2-0.8-0.5l-6.6-11.8v11.8
		c0,0.3-0.2,0.5-0.6,0.5h-6.7c-0.3,0-0.5-0.3-0.5-0.5V58.3c0-0.3,0.2-0.6,0.5-0.6H62c0.3,0,0.7,0.2,0.9,0.5L69.4,70V58.3
		c0-0.3,0.3-0.6,0.5-0.6H76.7z"/>
	<path class="st0" d="M99.2,77.1c0.3,0,0.6,0.2,0.6,0.5v5.8c0,0.3-0.3,0.5-0.6,0.5H81.5c-0.3,0-0.5-0.3-0.6-0.6V58.3
		c0-0.3,0.2-0.5,0.5-0.5h17.3c0.3,0,0.6,0.3,0.6,0.5V64c0,0.3-0.3,0.6-0.6,0.6h-9.9v3h8.1c0.3,0,0.5,0.3,0.5,0.5l-0.5,5.3
		c0,0.2-0.3,0.5-0.6,0.5h-7.4v3.2H99.2z"/>
	<path class="st0" d="M117.9,77.1c0.3,0,0.5,0.2,0.5,0.5l-0.5,5.8c0,0.3-0.3,0.5-0.6,0.5h-13.7c-0.3,0-0.6-0.3-0.6-0.5V58.3
		c0-0.3,0.3-0.6,0.6-0.6h6.7c0.3,0,0.6,0.3,0.6,0.6v18.8H117.9z"/>
	<path class="st0" d="M147.7,83.5c0.1,0.2,0,0.5-0.3,0.5h-7.5c-0.3,0-0.6-0.2-0.8-0.5l-1.1-4h-7.2l-1.1,4c-0.2,0.3-0.5,0.5-0.8,0.5
		h-7.5c-0.3,0-0.5-0.3-0.3-0.5l8.6-25.3c0.1-0.2,0.5-0.5,0.9-0.5h7.8c0.4,0,0.8,0.3,0.9,0.5L147.7,83.5z M134.3,66.8l-2.1,7.2h4.1
		L134.3,66.8z"/>
	<path class="st0" d="M168.8,81.6c0.1,0.3,0,0.5-0.3,0.7c-2.2,1.4-5.2,2.2-8,2.2c-7.8,0-13.1-5.5-13.1-13.7s5.3-13.7,13.1-13.7
		c2.8,0,5.8,0.8,8,2.2c0.3,0.2,0.5,0.4,0.3,0.7l-2.5,5.3c-0.2,0.3-0.4,0.5-0.7,0.3c-1.4-0.8-2.8-1.1-4.4-1.1c-3.4,0-5.7,2.5-5.7,6.3
		s2.3,6.3,5.7,6.3c1.6,0,3-0.3,4.4-1.1c0.3-0.2,0.6,0,0.7,0.3L168.8,81.6z M162.2,86.3c0.3-0.4,0.2-0.7-0.4-0.7h-2.5
		c-0.3,0-0.5,0.1-0.8,0.2l-3.5,2.8c-0.3,0.3-0.3,0.6,0.1,0.8l2.8,1.7c0.3,0.2,0.6,0.1,0.8-0.2L162.2,86.3z"/>
	<path class="st0" d="M182.8,84.5c-8.1,0-13.5-5.5-13.5-13.7c0-8.3,5.4-13.7,13.5-13.7c8.1,0,13.5,5.5,13.5,13.7
		C196.3,79,190.9,84.5,182.8,84.5z M182.8,64.8c-3.1,0-5.2,2.4-5.2,6c0,3.6,2.1,6,5.2,6c3.1,0,5.2-2.4,5.2-6
		C188,67.2,185.9,64.8,182.8,64.8z"/>
	<path class="st2" d="M150.9,32.3c2.9-1.3,5.3-1.6,7.6-1.6c1.6,0,3.2,0.1,4.8,0.1c2.4,0,5-0.3,8.3-1.8c5.3-2.4,8.4-7.3,6.8-10.9
		c-1-2.3-3.6-3.5-6.8-3.5c-1.8,0-3.9,0.4-5.8,1.3c-8.9,4-8.6,10.1-15.9,13.4c-39.8,17.8-42.6,18.7-41.9,20.4
		c0.1,0.3,0.3,0.5,0.9,0.5C111.1,50.3,118.7,46.7,150.9,32.3z"/>
	<g>
		<path class="st0" d="M108.6,16.7c3.6,0.7,27.2,5.7,31.4,8.4c1,0.7,1.8,1.4,2.4,2.1c-0.1,1-0.2,1.9-0.2,2.8c1-0.5,2.1-0.9,3.2-1.4
			c-0.5-0.9-0.7-1.8-0.6-2.6c0.5-2.7,4.7-4.4,10.7-4.9c0.4-0.5,0.8-1,1.2-1.5c-6.1,0.2-10.8,1.6-12.9,3.9
			c-0.8-1.6-6.3-9.7-34.1-14.8c0,0-5.1-1-5.5,1.5C103.7,12.7,105,16.1,108.6,16.7z M142.7,25.6C142.7,25.6,142.7,25.6,142.7,25.6
			L142.7,25.6L142.7,25.6z"/>
		<path class="st0" d="M180.5,23.9c-0.2,0.4-0.4,0.8-0.6,1.3c6.8,2.7,11.1,6.3,10.6,9.4c-0.8,4.5-11.7,6.3-24.3,3.9
			c-5.2-1-9.9-2.5-13.5-4.3c-0.2,0.1-0.4,0.2-0.6,0.3c-3,1.3-5.7,2.6-8.3,3.7c3.7,8.5,13.4,11.8,20.1,13c9.3,1.7,25.4,2,28.8-16.2
			C193.2,31.3,188.3,27,180.5,23.9z"/>
	</g>
</g>
</svg>
